# This file uses centimeters as units for non-parametric coordinates.

mtllib Corss.mtl
g default
v -0.500000 0.001620 0.784709
v 0.500000 0.001620 0.784708
v -0.870744 8.340794 1.259746
v 0.870743 8.340794 1.259745
v -0.870743 8.340794 -1.259745
v 0.870744 8.340794 -1.259746
v -0.500000 0.001620 -0.784708
v 0.500000 0.001620 -0.784709
v 0.711358 4.290885 -2.885427
v -0.711358 4.290885 -2.885427
v 0.767868 6.237128 -3.018847
v -0.767868 6.237128 -3.018847
v 0.767868 6.003471 -1.124359
v -0.767868 6.003471 -1.124359
v 0.711358 4.524542 -1.040818
v -0.711358 4.524542 -1.040818
v -0.711358 4.290885 2.884969
v 0.711358 4.290885 2.884969
v -0.767868 6.237128 3.018389
v 0.767868 6.237128 3.018389
v -0.767868 6.003471 1.123901
v 0.767868 6.003471 1.123901
v -0.711358 4.524542 1.040360
v 0.711358 4.524542 1.040360
vt 0.303532 0.053444
vt 0.303532 0.053444
vt 0.249536 0.948900
vt 0.249536 0.948900
vt 0.535920 0.948900
vt 0.535920 0.948900
vt 0.481924 0.053444
vt 0.481924 0.053444
vt 0.720707 0.514023
vt 0.720707 0.514023
vt 0.735873 0.723010
vt 0.735873 0.723010
vt 0.520531 0.697920
vt 0.520531 0.697920
vt 0.511035 0.539113
vt 0.511035 0.539113
vt 0.064800 0.514023
vt 0.064800 0.514023
vt 0.049635 0.723010
vt 0.049635 0.723010
vt 0.264977 0.697920
vt 0.264977 0.697920
vt 0.274473 0.539113
vt 0.274473 0.539113
vt 0.805828 0.053372
vt 0.913094 0.053372
vt 0.952862 0.947881
vt 0.766060 0.947881
vt 0.953100 0.947856
vt 0.766297 0.947905
vt 0.805833 0.053386
vt 0.913099 0.053358
vt 0.782535 0.512726
vt 0.936238 0.512558
vt 0.942573 0.722814
vt 0.776660 0.722996
vt 0.782622 0.512730
vt 0.936326 0.512570
vt 0.942650 0.722826
vt 0.776737 0.723000
vt 0.572004 0.046709
vt 0.720907 0.046709
vt 0.720907 0.229507
vt 0.572004 0.229507
vt 0.572408 0.229628
vt 0.721064 0.229628
vt 0.721064 0.046589
vt 0.572408 0.046589
vt 0.720191 0.229544
vt 0.573139 0.229544
vt 0.573139 0.046651
vt 0.720191 0.046651
vt 0.720439 0.046745
vt 0.572891 0.046745
vt 0.572891 0.229173
vt 0.720439 0.229173
vt 0.572535 0.047113
vt 0.720794 0.047113
vt 0.720794 0.230006
vt 0.572535 0.230006
vt 0.571985 0.229878
vt 0.720599 0.229878
vt 0.720599 0.047462
vt 0.571985 0.047462
vn 0.000000 -0.056872 0.998381
vn 0.000000 -0.056872 0.998381
vn 0.000000 -0.056872 0.998381
vn 0.000000 -0.056872 0.998381
vn 0.000000 1.000000 -0.000000
vn 0.000000 1.000000 -0.000000
vn 0.000000 1.000000 -0.000000
vn 0.000000 1.000000 -0.000000
vn -0.000000 -0.056872 -0.998381
vn -0.000000 -0.056872 -0.998381
vn -0.000000 -0.056872 -0.998382
vn -0.000000 -0.056872 -0.998381
vn 0.000000 -1.000000 0.000000
vn 0.000000 -1.000000 0.000000
vn 0.000000 -1.000000 0.000000
vn 0.000000 -1.000000 0.000000
vn 0.999013 -0.044414 0.000000
vn 0.999013 -0.044414 0.000000
vn 0.999013 -0.044414 0.000000
vn 0.999013 -0.044414 0.000000
vn -0.999013 -0.044414 -0.000000
vn -0.999013 -0.044414 -0.000000
vn -0.999013 -0.044414 -0.000000
vn -0.999013 -0.044414 -0.000000
vn 0.000000 -0.068392 -0.997659
vn 0.000000 -0.068392 -0.997659
vn 0.000000 -0.068392 -0.997659
vn 0.000000 -0.068392 -0.997659
vn 0.000000 0.992480 0.122408
vn 0.000000 0.992480 0.122408
vn 0.000000 0.992480 0.122408
vn 0.000000 0.992480 0.122408
vn 0.000000 -0.992073 0.125666
vn 0.000000 -0.992073 0.125666
vn 0.000000 -0.992073 0.125666
vn 0.000000 -0.992073 0.125666
vn -0.999456 -0.032979 0.000000
vn -0.999456 -0.032979 0.000000
vn -0.999456 -0.032979 0.000000
vn -0.999456 -0.032979 0.000000
vn 0.999456 -0.032979 0.000000
vn 0.999456 -0.032979 0.000000
vn 0.999456 -0.032979 0.000000
vn 0.999456 -0.032979 0.000000
vn 0.000000 -0.068392 0.997659
vn 0.000000 -0.068392 0.997659
vn 0.000000 -0.068392 0.997659
vn 0.000000 -0.068392 0.997659
vn 0.000000 0.992480 -0.122408
vn 0.000000 0.992480 -0.122408
vn 0.000000 0.992480 -0.122408
vn 0.000000 0.992480 -0.122408
vn 0.000000 -0.992073 -0.125666
vn 0.000000 -0.992073 -0.125666
vn 0.000000 -0.992073 -0.125666
vn 0.000000 -0.992073 -0.125666
vn 0.999456 -0.032979 0.000000
vn 0.999456 -0.032979 0.000000
vn 0.999456 -0.032979 0.000000
vn 0.999456 -0.032979 0.000000
vn -0.999456 -0.032979 0.000000
vn -0.999456 -0.032979 0.000000
vn -0.999456 -0.032979 0.000000
vn -0.999456 -0.032979 0.000000
s off
g pCube4
usemtl initialShadingGroup
f 1/25/1 2/26/2 4/27/3 3/28/4
f 3/41/5 4/42/6 6/43/7 5/44/8
f 5/29/9 6/30/10 8/31/11 7/32/12
f 7/45/13 8/46/14 2/47/15 1/48/16
f 2/2/17 8/7/18 6/5/19 4/3/20
f 7/8/21 1/1/22 3/4/23 5/6/24
f 9/33/25 10/34/26 12/35/27 11/36/28
f 11/49/29 12/50/30 14/51/31 13/52/32
f 15/53/33 16/54/34 10/55/35 9/56/36
f 10/10/37 16/16/38 14/13/39 12/11/40
f 15/15/41 9/9/42 11/12/43 13/14/44
f 17/37/45 18/38/46 20/39/47 19/40/48
f 19/57/49 20/58/50 22/59/51 21/60/52
f 23/61/53 24/62/54 18/63/55 17/64/56
f 18/18/57 24/24/58 22/21/59 20/19/60
f 23/23/61 17/17/62 19/20/63 21/22/64
